<svg version="1.2" xmlns="http://www.w3.org/2000/svg" viewBox="0 0 2844 570" width="2844" height="570">
	<title>logo</title>
	<style>
		.s0 { fill: #e94c2c } 
		.s1 { opacity: .97;fill: #5070a8 } 
		.s2 { opacity: .96;fill: #5070a8 } 
		.s3 { fill: #6dba80 } 
		.s4 { opacity: .95;fill: #87a5db } 
		.s5 { fill: #5070a8 } 
		.s6 { opacity: .95;fill: #5070a8 } 
		.s7 { opacity: .94;fill: #5070a8 } 
	</style>
	<g>
		<path fill-rule="evenodd" class="s0" d="m380.5 265.5q-12.8 0.5-25-1 0-79.5 0-159 0-7.5 0-15-12.5 0-25 0-106.5 0-213 0-12.5 0-25 0 0-12.5 0-25 144 0 288 0 0 100 0 200z"/>
	</g>
	<g>
		<path fill-rule="evenodd" class="s1" d="m924.5 67.5q26.2-2 51 6.5 27.9 12.9 36.5 42.5 7.2 31.7 3 64-13.3 66.6-81.5 67-28.7 0.4-53-14.5-23.7-20.7-26.5-52.5-4.9-33.8 6-66 18.5-42.4 64.5-47zm-27.5 53q-11.5 33.8-2.5 68.5 9.1 28.6 39.5 28.5 32.8-1.3 42-33 5.3-22.8 2-46-5.9-45.2-51.5-41-20.1 4.3-29.5 23z"/>
	</g>
	<g>
		<path fill-rule="evenodd" class="s2" d="m1609.5 67.5q22.3-1.7 43 6.5 12.1 5.8 10 19.5-0.5 7.1-3 13.5-2.5 1-5 0-15.6-9.8-34-11.5-19.4-0.6-23 18 1.2 9.7 9 15.5 18.3 9.4 37 18 41.3 24.5 23.5 69.5-11.7 21.5-35.5 27.5-33 8-64-6-11.5-6.2-9-19.5-0.1-6.6 1.5-13 1.4-2.1 4-2 13.7 7.2 28.5 12.5 15.1 3.4 30-1 19.5-11.7 7-30.5-4.4-4.6-10-7.5-22.3-8.7-42-22-22.2-21.4-14.5-51.5 5.8-21.8 26.5-30.5 9.9-3.7 20-5.5z"/>
	</g>
	<g>
		<path fill-rule="evenodd" class="s2" d="m2441.5 67.5q27.1-1.6 50 12.5 4 3.3 4.5 8.5 1 9.5 0 19-0.6 6.2-6.5 5.5-11.4-8.5-25-13-43.6-8.4-54.5 34.5-5 23.5 0 47 7.7 33 41.5 35 20.5-1.3 37-13.5 4.3-1.4 7.5 1.5 3.6 14.4-2 28-15.5 11.1-34.5 13.5-81.7 7.8-90.5-73.5-4.9-41.9 18-77 21.8-25 54.5-28z"/>
	</g>
	<g>
		<path fill-rule="evenodd" class="s1" d="m2582.5 67.5q26.2-2 51 6.5 27.9 12.9 36.5 42.5 7.2 31.7 3 64-13.3 66.6-81.5 67-28.7 0.4-53-14.5-23.7-20.7-26.5-52.5-4.9-33.8 6-66 18.5-42.4 64.5-47zm-27.5 53q-11.5 33.8-2.5 68.5 9.1 28.6 39.5 28.5 32.8-1.3 42-33 5.3-22.8 2-46-5.9-45.2-51.5-41-20.1 4.3-29.5 23z"/>
	</g>
	<g>
		<path fill-rule="evenodd" class="s2" d="m2744.5 67.5q22.3-1.7 43 6.5 12.1 5.8 10 19.5-0.5 7.1-3 13.5-2.5 1-5 0-15.6-9.8-34-11.5-19.4-0.6-23 18 1.2 9.7 9 15.5 18.3 9.4 37 18 41.3 24.5 23.5 69.5-11.7 21.5-35.5 27.5-33 8-64-6-11.5-6.2-9-19.5-0.1-6.6 1.5-13 1.4-2.1 4-2 13.7 7.2 28.5 12.5 15.1 3.4 30-1 19.5-11.7 7-30.5-4.4-4.6-10-7.5-22.3-8.7-42-22-22.2-21.4-14.5-51.5 5.8-21.8 26.5-30.5 9.9-3.7 20-5.5z"/>
	</g>
	<g>
		<path fill-rule="evenodd" class="s1" d="m495.5 69.5q12.6-0.8 24.5 3 1 84.5 0 169-2.2 2.3-5.5 2.5-13.6 1.3-27-1-1.3-1.3-2.5-2.5-1-83 0-166 0.6-1.4 1.5-2.5 4.7-1.3 9-2.5z"/>
	</g>
	<g>
		<path fill-rule="evenodd" class="s2" d="m683.5 69.5q8.1 0.7 16 2.5 1 1.6 1.5 3.5 1 78.5 0 157-0.6 10-10.5 11.5-11.5 1-23 0-8.4-0.8-13.5-7.5-34-60.4-64-123 0.9 63.5 0 127-1.9 3.1-5.5 3.5-10.5 1-21 0-3.6-0.4-5.5-3.5-0.3-40-0.5-80-0.2-42.1 1.5-84 2.9-4 7.5-5.5 15-1 30 0 10.3 2.3 15.5 11.5 28.8 53.6 56 108 0.5-58.5 1-117 1.8-2.1 4.5-2.5 5.3-0.3 10-1.5z"/>
	</g>
	<g>
		<path fill-rule="evenodd" class="s1" d="m2314.5 69.5q12.6-0.8 24.5 3 1 84.5 0 169-2.2 2.3-5.5 2.5-13.6 1.3-27-1-1.3-1.3-2.5-2.5-1-83 0-166 0.6-1.4 1.5-2.5 4.7-1.3 9-2.5z"/>
	</g>
	<g>
		<path fill-rule="evenodd" class="s1" d="m744.5 70.5q44.4-0.5 88.5 1 3 6.6 2.5 14-0.3 4.5-0.5 9-0.5 3.5-3.5 5.5-29 0.8-58 0.5 0 22.5 0 45 27.5-0.3 55 0.5 1.8 1.4 2.5 3.5 3 10.5 0 21-0.7 2.1-2.5 3.5-27.5 0.8-55 0.5 0.3 33.5-0.5 67-2.5 1.8-5.5 2.5-13.6 1.3-27-1-1.3-1.3-2.5-2.5-1-81 0-162 0.9-6.1 6.5-8z"/>
	</g>
	<g>
		<path fill-rule="evenodd" class="s1" d="m1052.5 70.5q31.5-0.3 63 0.5 64.6 8.1 45.5 70.5-9.3 15.6-26.5 22 13.3 8.5 19.5 23 11.5 25.6 20.5 52-0.1 2.4-1 4.5-8.6 1.6-17.5 1.5-8.9 0.1-17.5-1.5-10.3-22.9-19.5-46.5-4.7-14.2-17.5-21.5-9.9-2-20-1.5 0.3 34-0.5 68-2.2 2.3-5.5 2.5-11.5 1-23 0-4.2-0.1-6.5-3.5-1-81 0-162 0.9-6.1 6.5-8zm29 76q11 0.3 22-0.5 22.9-1.4 25-24-0.3-20-20-23-13.5-0.8-27-0.5 0 24 0 48z"/>
	</g>
	<g>
		<path fill-rule="evenodd" class="s1" d="m1208.5 70.5q18-0.3 36 0.5 8.6 1.2 14.5 7.5 21.4 56.3 42 113 21.7-56.6 44-113 4.4-6.9 12.5-7.5 17.5-1 35 0 6.6 1.1 8.5 7.5 1 81.5 0 163-2.2 2.3-5.5 2.5-11 1-22 0-3.6-0.4-5.5-3.5-0.5-69-1-138-24.3 67.4-48 135-1.2 3.1-3.5 5.5-13.4 2.4-27 1-3.8-0.8-6.5-3.5-23.7-69.6-48-139-0.5 70-1 140-2.2 2.3-5.5 2.5-5.5 0.3-11 0.5-7.7 0.3-15-2-1-0.8-1.5-2-1-79.5 0-159 1.2-8 8.5-11z"/>
	</g>
	<g>
		<path fill-rule="evenodd" class="s1" d="m1444.5 70.5q46.5-0.3 93 0.5 3.5 6.3 3 13.5 0.5 7.2-3 13.5-32 0.8-64 0.5 0 21 0 42 27.5-0.3 55 0.5 6 13 0 26-27.5 0.8-55 0.5 0 24 0 48 32-0.3 64 0.5 1.8 1.4 2.5 3.5 2.7 11.6-1 23-1.6 1-3.5 1.5-43.5 1-87 0-5.8 0-9.5-4.5-2.5-80.4-1-161 0.9-6.1 6.5-8z"/>
	</g>
	<g>
		<path fill-rule="evenodd" class="s1" d="m1768.5 70.5q18-0.3 36 0.5 8.6 1.2 14.5 7.5 21.4 56.3 42 113 21.7-56.6 44-113 4.4-6.9 12.5-7.5 17.5-1 35 0 6.6 1.1 8.5 7.5 1 81.5 0 163-2.2 2.3-5.5 2.5-11 1-22 0-3.6-0.4-5.5-3.5-0.5-69-1-138-24.3 67.4-48 135-1.2 3.1-3.5 5.5-13.4 2.4-27 1-3.8-0.8-6.5-3.5-23.7-69.6-48-139-0.5 70-1 140-2.2 2.3-5.5 2.5-5.5 0.3-11 0.5-7.7 0.3-15-2-1-0.8-1.5-2-1-79.5 0-159 1.2-8 8.5-11z"/>
	</g>
	<g>
		<path fill-rule="evenodd" class="s1" d="m2005.5 70.5q46.5-0.3 93 0.5 3.5 6.3 3 13.5 0.5 7.2-3 13.5-32 0.8-64 0.5 0 21 0 42 27.5-0.3 55 0.5 6 13 0 26-27.5 0.8-55 0.5 0 24 0 48 32-0.3 64 0.5 1.8 1.4 2.5 3.5 2.7 11.6-1 23-1.6 1-3.5 1.5-43.5 1-87 0-5.8 0-9.5-4.5-2.5-80.4-1-161 0.9-6.1 6.5-8z"/>
	</g>
	<g>
		<path fill-rule="evenodd" class="s1" d="m2138.5 70.5q31-0.3 62 0.5 75.6 7.7 76 84 0.8 31.6-15.5 58.5-22.1 27.2-57.5 29.5-33 2.7-66 0-2.7-1.2-4.5-3.5-2.5-80.4-1-161 0.9-6.1 6.5-8zm29 145q16.6 0.4 33-1.5 34.3-8.8 37.5-44.5 7.7-78-70.5-71 0 58.5 0 117z"/>
	</g>
	<g>
		<path fill-rule="evenodd" class="s3" d="m92.5 90.5q12.5 0 25 0 0 80.5 0 161 0 6.5 0 13 0 12.5 0 25 0 11.5 0 23 0 82 0 164 107.5 0 215 0 11.5 0 23 0 12.5 0 25 0 0 12.5 0 25-144 0-288 0 0-205.5 0-411z"/>
	</g>
	<g>
		<path fill-rule="evenodd" class="s4" d="m330.5 90.5q12.5 0 25 0 0 7.5 0 15-105.6 78.8-210 159-14 0-28 0 0-6.5 0-13 106.9-79.9 213-161z"/>
	</g>
	<g>
		<path fill-rule="evenodd" class="s5" d="m117.5 264.5q14 0 28 0 105 0 210 0 12.2 1.5 25 1 0 105.5 0 211-12.5 0-25 0 0-8.5 0-17 0-85 0-170-112 0-224 0-7 0-14 0 0-12.5 0-25z"/>
	</g>
	<g>
		<path fill-rule="evenodd" class="s4" d="m117.5 289.5q7 0 14 0 111.5 85.5 224 170 0 8.5 0 17-11.5 0-23 0-107.2-82.3-215-164 0-11.5 0-23z"/>
	</g>
	<g>
		<path fill-rule="evenodd" class="s6" d="m1637.5 320.5q20.8 0.3 39 10.5 1.8 1.4 2.5 3.5 1 8 0 16-1.4 4-5.5 2.5-11.6-7.5-25-11-19.6-4.7-33.5 9.5-10.4 21 8.5 34.5 21.3 11.4 43 22 26.8 16.9 22.5 48.5-5.7 32.2-37.5 40.5-33.8 8-64-9-3.5-2.5-4.5-6.5-1.3-8.1 1-16 3.1-1.6 6.5-0.5 22.4 16.3 50 13 26.3-5.8 23.5-32.5-2.4-9.6-10.5-15.5-20.1-11.1-41-21-38.5-24.6-19.5-66.5 16.8-22 44.5-22z"/>
	</g>
	<g>
		<path fill-rule="evenodd" class="s6" d="m1995.5 320.5q67.3-0.5 76.5 66 4.2 31.4-4 62-18.5 51.9-74 51-69.5-1.5-75-71-4.5-37.6 11-72 12.6-21.1 35.5-30.5 14.9-4.6 30-5.5zm-48.5 60q-6.4 28.4-1 57 5.6 32.1 37 40 39.2 7.9 58-27 10.5-29.2 6-60-6.4-50.7-57.5-49-33.3 6-42.5 39z"/>
	</g>
	<g>
		<path fill-rule="evenodd" class="s6" d="m1033.5 321.5q27.1-2.5 51 10.5 4.2 2.7 7.5 6.5 2.9 9.5 0 19-1.5 1-3 2-7.8-4.5-15.5-9.5-60.2-25.3-77.5 37.5-7 34.7 7 67 18.6 28.4 52.5 22.5 17.6-4.3 32-15 2.9-1.1 5.5 0.5 2.9 9 0 18-2.4 4.1-6.5 6.5-44.1 24.9-88 0-20.2-15.6-26.5-40.5-9.7-40.6 4-80 16.5-38.6 57.5-45z"/>
	</g>
	<g>
		<path fill-rule="evenodd" class="s6" d="m1840.5 321.5q27.1-2.5 51 10.5 4.2 2.7 7.5 6.5 2.9 9.5 0 19-1.5 1-3 2-7.8-4.5-15.5-9.5-60.2-25.3-77.5 37.5-7 34.7 7 67 18.6 28.4 52.5 22.5 17.6-4.3 32-15 2.9-1.1 5.5 0.5 2.9 9 0 18-2.4 4.1-6.5 6.5-44.1 24.9-88 0-20.2-15.6-26.5-40.5-9.7-40.6 4-80 16.5-38.6 57.5-45z"/>
	</g>
	<g>
		<path fill-rule="evenodd" class="s6" d="m915.5 322.5q8.2-0.5 16 2 1.8 85.5 0.5 171-1.1 0.9-2.5 1.5-8.5 1-17 0-2.1-0.7-3.5-2.5-1-84 0-168 2.6-3.2 6.5-4z"/>
	</g>
	<g>
		<path fill-rule="evenodd" class="s6" d="m1130.5 322.5q8.2-0.5 16 2 1.8 85.5 0.5 171-1.1 0.9-2.5 1.5-8.5 1-17 0-2.1-0.7-3.5-2.5-1-84 0-168 2.6-3.2 6.5-4z"/>
	</g>
	<g>
		<path fill-rule="evenodd" class="s6" d="m1240.5 322.5q10.6-0.4 21 1.5 2.3 2.4 3.5 5.5 29.5 81.7 58.5 163.5 0.1 2.6-2 4-11.2 1.4-22-1-9.3-21.7-16-44.5-35.5-0.3-71 0.5-8 21.6-15.5 43.5-1.1 0.9-2.5 1.5-9 1-18 0-4.2-2-2.5-6.5 29.5-82 59-164 3.2-3.4 7.5-4zm-22 109q29 2 58 0-14.4-40.4-28.5-81-0.6-0.8-1.5-1-13.1 41.3-28 82z"/>
	</g>
	<g>
		<path fill-rule="evenodd" class="s6" d="m1356.5 322.5q8.2-0.5 16 2 1.5 76 1 152 32.5-0.5 65 1 3.9 9 0 18-1.3 1.1-3 1.5-38.5 1-77 0-8.2-0.3-8.5-8.5-1-81 0-162 2.6-3.2 6.5-4z"/>
	</g>
	<g>
		<path fill-rule="evenodd" class="s6" d="m492.5 323.5q25.5-0.3 51 0.5 39.2 1.9 48.5 39.5 6.5 39.2-26.5 60.5-12.3 5.8-26 7-15 0.8-30 0.5 0.3 32-0.5 64-1.1 0.9-2.5 1.5-8.5 1-17 0-2.1-0.7-3.5-2.5-1-81.5 0-163 0.9-6.1 6.5-8zm17 88q14.5 0.3 29-0.5 28.4-5.6 29-34.5 0.2-28.5-28-32.5-15-0.8-30-0.5 0 34 0 68z"/>
	</g>
	<g>
		<path fill-rule="evenodd" class="s7" d="m632.5 323.5q44.4-0.5 88.5 1 1.6 4.3 1.5 9 0.3 5.1-2 9.5-35 0.8-70 0.5 0 26.5 0 53 30-0.3 60 0.5 4.9 8.3 1.5 17.5-1.1 0.9-2.5 1.5-29.5 0.8-59 0.5 0 30 0 60 34.5-0.3 69 0.5 2.1 0.7 3.5 2.5 1 7.5 0 15-1.4 1.8-3.5 2.5-42 1-84 0-8.2-0.3-8.5-8.5-1-78.5 0-157 0.7-5.5 5.5-8z"/>
	</g>
	<g>
		<path fill-rule="evenodd" class="s6" d="m766.5 323.5q26.5-0.3 53 0.5 57.1 6.5 44.5 62.5-8.7 20-29.5 26.5 11.8 5.8 17.5 17.5 11.6 25.8 22 52 3 6.7 2.5 14-10.4 1.6-21 0.5-2.1-0.7-3.5-2.5-10.6-27.7-22-55-6.7-14.7-22.5-18.5-11.5-0.8-23-0.5 0.3 37.5-0.5 75-1.1 0.9-2.5 1.5-8.5 1-17 0-2.1-0.7-3.5-2.5-1-81.5 0-163 0.7-5.5 5.5-8zm18 77q15 0.3 30-0.5 18.3-1.8 25.5-18.5 7-31.7-24.5-37.5-15.5-0.8-31-0.5 0 28.5 0 57z"/>
	</g>
	<g>
		<path fill-rule="evenodd" class="s7" d="m1470.5 323.5q44.4-0.5 88.5 1 1.6 4.3 1.5 9 0.3 5.1-2 9.5-35 0.8-70 0.5 0 26.5 0 53 30-0.3 60 0.5 4.9 8.3 1.5 17.5-1.1 0.9-2.5 1.5-29.5 0.8-59 0.5 0 30 0 60 34.5-0.3 69 0.5 2.1 0.7 3.5 2.5 1 7.5 0 15-1.4 1.8-3.5 2.5-42 1-84 0-8.2-0.3-8.5-8.5-1-78.5 0-157 0.7-5.5 5.5-8z"/>
	</g>
	<g>
		<path fill-rule="evenodd" class="s6" d="m2115.5 323.5q12-0.3 24 0.5 6.8 0.8 10.5 6.5 26.5 65.5 53 131 27.3-64.4 54-129 3.5-6.5 10.5-8.5 13.2-1.4 26 1 3 2 3.5 5.5 1 82.5 0 165-5.5 2.3-11.5 2-4-0.3-8-0.5-1.4-0.6-2.5-1.5-0.5-75-1-150-30.5 75-61 150-1.1 0.9-2.5 1.5-8.5 1-17 0-3.5-1.7-4.5-5.5-28-72-56-144-0.5 73.5-1 147-1.2 2-3.5 2.5-4 0.3-8 0.5-5.8 0.3-11-2-1.7-81.4-0.5-163 0.4-6.8 6.5-9z"/>
	</g>
	<g>
		<path fill-rule="evenodd" class="s7" d="m1725.5 466.5q7.5-0.3 15 0.5 5.2 1.2 6.5 6.5 7.4 30.1-22.5 23.5-2.7-1.2-4.5-3.5-3.4-12.2 1-24 2.1-1.9 4.5-3z"/>
	</g>
</svg>