<svg xmlns="http://www.w3.org/2000/svg" xmlns:xlink="http://www.w3.org/1999/xlink" width="500" zoomAndPan="magnify" viewBox="0 0 375 374.999991" height="500" preserveAspectRatio="xMidYMid meet" version="1.0"><defs><g/><clipPath id="ae8450ea3d"><path d="M 64.175781 36.359375 L 309.90625 36.359375 L 309.90625 282.089844 L 64.175781 282.089844 Z M 64.175781 36.359375 " clip-rule="nonzero"/></clipPath><clipPath id="62d59eac80"><path d="M 187.042969 282.089844 C 154.238281 282.089844 123.351562 269.320312 100.171875 246.09375 C 76.945312 222.914062 64.175781 192.027344 64.175781 159.222656 C 64.175781 126.421875 76.945312 95.53125 100.171875 72.355469 C 123.351562 49.125 154.238281 36.359375 187.042969 36.359375 C 219.84375 36.359375 250.734375 49.125 273.910156 72.355469 C 297.140625 95.582031 309.90625 126.421875 309.90625 159.222656 C 309.90625 192.027344 297.140625 222.914062 273.910156 246.09375 C 250.734375 269.320312 219.84375 282.089844 187.042969 282.089844 Z M 187.042969 43.726562 C 156.203125 43.726562 127.179688 55.757812 105.378906 77.558594 C 83.574219 99.363281 71.542969 128.386719 71.542969 159.222656 C 71.542969 190.0625 83.574219 219.085938 105.378906 240.886719 C 127.179688 262.691406 156.203125 274.722656 187.042969 274.722656 C 217.878906 274.722656 246.902344 262.691406 268.707031 240.886719 C 290.507812 219.085938 302.539062 190.0625 302.539062 159.222656 C 302.539062 128.386719 290.507812 99.363281 268.707031 77.558594 C 246.902344 55.757812 217.878906 43.726562 187.042969 43.726562 Z M 187.042969 43.726562 " clip-rule="nonzero"/></clipPath><clipPath id="c1fa99f16a"><path d="M 70.652344 42.835938 L 303.429688 42.835938 L 303.429688 275.613281 L 70.652344 275.613281 Z M 70.652344 42.835938 " clip-rule="nonzero"/></clipPath><clipPath id="04c7d7a06b"><path d="M 187.042969 275.613281 C 155.96875 275.613281 126.707031 263.519531 104.75 241.515625 C 82.746094 219.558594 70.652344 190.296875 70.652344 159.222656 C 70.652344 128.148438 82.746094 98.890625 104.75 76.933594 C 126.707031 54.929688 155.96875 42.835938 187.042969 42.835938 C 218.117188 42.835938 247.375 54.929688 269.332031 76.933594 C 291.335938 98.9375 303.429688 128.148438 303.429688 159.222656 C 303.429688 190.296875 291.335938 219.558594 269.332031 241.515625 C 247.375 263.519531 218.117188 275.613281 187.042969 275.613281 Z M 187.042969 49.8125 C 157.828125 49.8125 130.335938 61.210938 109.679688 81.863281 C 89.027344 102.519531 77.628906 130.011719 77.628906 159.222656 C 77.628906 188.4375 89.027344 215.929688 109.679688 236.585938 C 130.335938 257.238281 157.828125 268.636719 187.042969 268.636719 C 216.253906 268.636719 243.746094 257.238281 264.402344 236.585938 C 285.054688 215.929688 296.453125 188.4375 296.453125 159.222656 C 296.453125 130.011719 285.054688 102.519531 264.402344 81.863281 C 243.746094 61.210938 216.253906 49.8125 187.042969 49.8125 Z M 187.042969 49.8125 " clip-rule="nonzero"/></clipPath><clipPath id="aa632b7df4"><path d="M 16.800781 14.351562 L 357.285156 14.351562 L 357.285156 354.835938 L 16.800781 354.835938 Z M 16.800781 14.351562 " clip-rule="nonzero"/></clipPath><clipPath id="7492a7b5bc"><path d="M 187.042969 354.835938 C 141.589844 354.835938 98.789062 337.144531 66.675781 304.960938 C 34.492188 272.84375 16.800781 230.046875 16.800781 184.59375 C 16.800781 139.140625 34.492188 96.34375 66.675781 64.226562 C 98.789062 32.042969 141.589844 14.351562 187.042969 14.351562 C 232.492188 14.351562 275.292969 32.042969 307.410156 64.226562 C 339.59375 96.410156 357.285156 139.140625 357.285156 184.59375 C 357.285156 230.046875 339.59375 272.84375 307.410156 304.960938 C 275.292969 337.144531 232.492188 354.835938 187.042969 354.835938 Z M 187.042969 24.558594 C 144.3125 24.558594 104.097656 41.226562 73.886719 71.4375 C 43.675781 101.648438 27.007812 141.863281 27.007812 184.59375 C 27.007812 227.324219 43.675781 267.535156 73.886719 297.746094 C 104.097656 327.957031 144.3125 344.628906 187.042969 344.628906 C 229.773438 344.628906 269.984375 327.957031 300.195312 297.746094 C 330.40625 267.535156 347.078125 227.324219 347.078125 184.59375 C 347.078125 141.863281 330.40625 101.648438 300.195312 71.4375 C 269.984375 41.226562 229.773438 24.558594 187.042969 24.558594 Z M 187.042969 24.558594 " clip-rule="nonzero"/></clipPath><clipPath id="7b074a2a72"><path d="M 0 0.917969 L 374.082031 0.917969 L 374.082031 375 L 0 375 Z M 0 0.917969 " clip-rule="nonzero"/></clipPath><clipPath id="79fc014b46"><path d="M 187.042969 375 C 137.105469 375 90.082031 355.5625 54.796875 320.203125 C 19.4375 284.917969 0 237.894531 0 187.957031 C 0 138.019531 19.4375 91 54.796875 55.714844 C 90.082031 20.351562 137.105469 0.917969 187.042969 0.917969 C 236.980469 0.917969 284 20.351562 319.285156 55.714844 C 354.648438 91.074219 374.082031 138.019531 374.082031 187.957031 C 374.082031 237.894531 354.648438 284.917969 319.285156 320.203125 C 284 355.5625 236.980469 375 187.042969 375 Z M 187.042969 12.128906 C 140.09375 12.128906 95.914062 30.445312 62.722656 63.636719 C 29.527344 96.828125 11.214844 141.011719 11.214844 187.957031 C 11.214844 234.90625 29.527344 279.085938 62.722656 312.277344 C 95.914062 345.472656 140.09375 363.785156 187.042969 363.785156 C 233.988281 363.785156 278.171875 345.472656 311.363281 312.277344 C 344.554688 279.085938 362.871094 234.90625 362.871094 187.957031 C 362.871094 141.011719 344.554688 96.828125 311.363281 63.636719 C 278.171875 30.445312 233.988281 12.128906 187.042969 12.128906 Z M 187.042969 12.128906 " clip-rule="nonzero"/></clipPath><clipPath id="ad870b3d5c"><path d="M 9.804688 10.71875 L 364.28125 10.71875 L 364.28125 365.195312 L 9.804688 365.195312 Z M 9.804688 10.71875 " clip-rule="nonzero"/></clipPath><clipPath id="40aa87ae0f"><path d="M 187.042969 365.195312 C 139.722656 365.195312 95.164062 346.777344 61.726562 313.273438 C 28.222656 279.835938 9.804688 235.277344 9.804688 187.957031 C 9.804688 140.636719 28.222656 96.082031 61.726562 62.644531 C 95.164062 29.136719 139.722656 10.71875 187.042969 10.71875 C 234.363281 10.71875 278.917969 29.136719 312.355469 62.644531 C 345.863281 96.152344 364.28125 140.636719 364.28125 187.957031 C 364.28125 235.277344 345.863281 279.835938 312.355469 313.273438 C 278.917969 346.777344 234.363281 365.195312 187.042969 365.195312 Z M 187.042969 21.347656 C 142.554688 21.347656 100.6875 38.703125 69.238281 70.152344 C 37.785156 101.605469 20.429688 143.472656 20.429688 187.957031 C 20.429688 232.445312 37.785156 274.3125 69.238281 305.761719 C 100.6875 337.214844 142.554688 354.570312 187.042969 354.570312 C 231.527344 354.570312 273.394531 337.214844 304.847656 305.761719 C 336.296875 274.3125 353.652344 232.445312 353.652344 187.957031 C 353.652344 143.472656 336.296875 101.605469 304.847656 70.152344 C 273.394531 38.703125 231.527344 21.347656 187.042969 21.347656 Z M 187.042969 21.347656 " clip-rule="nonzero"/></clipPath><clipPath id="35a024f645"><path d="M 77.027344 49.210938 L 297.054688 49.210938 L 297.054688 269.238281 L 77.027344 269.238281 Z M 77.027344 49.210938 " clip-rule="nonzero"/></clipPath><clipPath id="f972b9e83f"><path d="M 187.042969 269.238281 C 157.667969 269.238281 130.011719 257.804688 109.257812 237.007812 C 88.460938 216.253906 77.027344 188.597656 77.027344 159.222656 C 77.027344 129.851562 88.460938 102.195312 109.257812 81.441406 C 130.011719 60.644531 157.667969 49.210938 187.042969 49.210938 C 216.414062 49.210938 244.070312 60.644531 264.824219 81.441406 C 285.621094 102.238281 297.054688 129.851562 297.054688 159.222656 C 297.054688 188.597656 285.621094 216.253906 264.824219 237.007812 C 244.070312 257.804688 216.414062 269.238281 187.042969 269.238281 Z M 187.042969 55.804688 C 159.429688 55.804688 133.441406 66.578125 113.917969 86.101562 C 94.398438 105.625 83.625 131.609375 83.625 159.222656 C 83.625 186.835938 94.398438 212.824219 113.917969 232.347656 C 133.441406 251.867188 159.429688 262.640625 187.042969 262.640625 C 214.65625 262.640625 240.640625 251.867188 260.164062 232.347656 C 279.6875 212.824219 290.460938 186.835938 290.460938 159.222656 C 290.460938 131.609375 279.6875 105.625 260.164062 86.101562 C 240.640625 66.578125 214.65625 55.804688 187.042969 55.804688 Z M 187.042969 55.804688 " clip-rule="nonzero"/></clipPath><clipPath id="9fb09afd96"><path d="M 83.066406 54.789062 L 291.933594 54.789062 L 291.933594 263.65625 L 83.066406 263.65625 Z M 83.066406 54.789062 " clip-rule="nonzero"/></clipPath><clipPath id="d2bf2bbcb2"><path d="M 187.5 263.65625 C 159.617188 263.65625 133.363281 252.804688 113.660156 233.0625 C 93.917969 213.359375 83.066406 187.105469 83.066406 159.222656 C 83.066406 131.339844 93.917969 105.085938 113.660156 85.386719 C 133.363281 65.640625 159.617188 54.789062 187.5 54.789062 C 215.382812 54.789062 241.636719 65.640625 261.339844 85.386719 C 281.082031 105.128906 291.933594 131.339844 291.933594 159.222656 C 291.933594 187.105469 281.082031 213.359375 261.339844 233.0625 C 241.636719 252.804688 215.382812 263.65625 187.5 263.65625 Z M 187.5 61.050781 C 161.289062 61.050781 136.617188 71.277344 118.085938 89.808594 C 99.554688 108.34375 89.328125 133.011719 89.328125 159.222656 C 89.328125 185.4375 99.554688 210.105469 118.085938 228.636719 C 136.617188 247.171875 161.289062 257.398438 187.5 257.398438 C 213.710938 257.398438 238.382812 247.171875 256.914062 228.636719 C 275.445312 210.105469 285.671875 185.4375 285.671875 159.222656 C 285.671875 133.011719 275.445312 108.34375 256.914062 89.808594 C 238.382812 71.277344 213.710938 61.050781 187.5 61.050781 Z M 187.5 61.050781 " clip-rule="nonzero"/></clipPath><clipPath id="8103b11e40"><path d="M 112.5 84.222656 L 262.5 84.222656 L 262.5 234.222656 L 112.5 234.222656 Z M 112.5 84.222656 " clip-rule="nonzero"/></clipPath></defs><rect x="-37.5" width="450" fill="#ffffff" y="-37.499999" height="449.999989" fill-opacity="1"/><rect x="-37.5" width="450" fill="#ffffff" y="-37.499999" height="449.999989" fill-opacity="1"/><g clip-path="url(#ae8450ea3d)"><g clip-path="url(#62d59eac80)"><path fill="#1c6758" d="M 64.175781 36.359375 L 309.90625 36.359375 L 309.90625 282.089844 L 64.175781 282.089844 Z M 64.175781 36.359375 " fill-opacity="1" fill-rule="nonzero"/></g></g><g clip-path="url(#c1fa99f16a)"><g clip-path="url(#04c7d7a06b)"><path fill="#1c6758" d="M 70.652344 42.835938 L 303.429688 42.835938 L 303.429688 275.613281 L 70.652344 275.613281 Z M 70.652344 42.835938 " fill-opacity="1" fill-rule="nonzero"/></g></g><g clip-path="url(#aa632b7df4)"><g clip-path="url(#7492a7b5bc)"><path fill="#1c6758" d="M 16.800781 14.351562 L 357.285156 14.351562 L 357.285156 354.835938 L 16.800781 354.835938 Z M 16.800781 14.351562 " fill-opacity="1" fill-rule="nonzero"/></g></g><g clip-path="url(#7b074a2a72)"><g clip-path="url(#79fc014b46)"><path fill="#1c6758" d="M 0 0.917969 L 374.082031 0.917969 L 374.082031 375 L 0 375 Z M 0 0.917969 " fill-opacity="1" fill-rule="nonzero"/></g></g><g clip-path="url(#ad870b3d5c)"><g clip-path="url(#40aa87ae0f)"><path fill="#1c6758" d="M 9.804688 10.71875 L 364.28125 10.71875 L 364.28125 365.195312 L 9.804688 365.195312 Z M 9.804688 10.71875 " fill-opacity="1" fill-rule="nonzero"/></g></g><g clip-path="url(#35a024f645)"><g clip-path="url(#f972b9e83f)"><path fill="#1c6758" d="M 77.027344 49.210938 L 297.054688 49.210938 L 297.054688 269.238281 L 77.027344 269.238281 Z M 77.027344 49.210938 " fill-opacity="1" fill-rule="nonzero"/></g></g><g clip-path="url(#9fb09afd96)"><g clip-path="url(#d2bf2bbcb2)"><path fill="#1c6758" d="M 83.066406 54.789062 L 291.933594 54.789062 L 291.933594 263.65625 L 83.066406 263.65625 Z M 83.066406 54.789062 " fill-opacity="1" fill-rule="nonzero"/></g></g><g clip-path="url(#8103b11e40)"><path fill="#1c6758" d="M 247.019531 113.554688 C 237.03125 100.535156 222.804688 91.023438 206.953125 86.773438 C 200.671875 85.089844 194.15625 84.234375 187.589844 84.234375 C 177.632812 84.234375 167.964844 86.148438 158.859375 89.917969 C 143.699219 96.195312 130.828125 107.480469 122.625 121.691406 C 116 133.066406 112.5 146.039062 112.5 159.199219 C 112.5 172.359375 116 185.324219 122.671875 196.769531 C 122.757812 196.878906 122.839844 196.996094 122.929688 197.148438 L 123.003906 197.257812 C 131.820312 212.296875 145.707031 223.84375 162.105469 229.769531 C 170.304688 232.734375 178.917969 234.214844 187.53125 234.214844 C 196.148438 234.214844 204.761719 232.734375 212.960938 229.769531 C 229.25 223.882812 243.078125 212.433594 251.933594 197.476562 L 252 197.328125 C 252.125 197.097656 252.222656 196.949219 252.339844 196.789062 L 252.429688 196.65625 C 259.027344 185.34375 262.507812 172.390625 262.5 159.199219 L 262.5 158.511719 C 262.355469 142.34375 256.855469 126.378906 247.019531 113.554688 Z M 219.613281 176.484375 C 220.210938 170.761719 220.519531 164.945312 220.53125 159.191406 C 220.519531 153.4375 220.210938 147.625 219.613281 141.914062 L 219.425781 140.140625 L 221.175781 139.808594 C 229.152344 138.28125 236.917969 135.742188 244.253906 132.265625 L 246.046875 131.417969 L 246.855469 133.226562 C 250.527344 141.453125 252.390625 150.191406 252.390625 159.199219 C 252.390625 168.207031 250.527344 176.945312 246.855469 185.171875 L 246.046875 186.980469 L 244.257812 186.132812 C 236.917969 182.660156 229.152344 180.121094 221.175781 178.589844 L 219.425781 178.253906 Z M 135.371094 197.648438 L 133.960938 195.730469 L 136.125 194.738281 C 142.179688 191.96875 148.558594 189.898438 155.078125 188.585938 L 157.027344 188.191406 L 157.371094 190.148438 C 159 199.378906 161.894531 208.335938 165.972656 216.773438 L 168.148438 221.273438 L 163.507812 219.417969 C 152.277344 214.921875 142.546875 207.394531 135.371094 197.648438 Z M 163.511719 99.015625 L 168.1875 97.113281 L 165.984375 101.65625 C 161.898438 110.089844 159 119.042969 157.371094 128.269531 L 157.023438 130.226562 L 155.074219 129.828125 C 148.546875 128.507812 142.171875 126.429688 136.125 123.664062 L 134.015625 122.695312 L 135.449219 120.625 L 135.464844 120.601562 C 135.5625 120.441406 135.664062 120.289062 135.777344 120.140625 C 136.191406 119.59375 136.636719 119.070312 137.082031 118.550781 C 137.296875 118.300781 137.515625 118.046875 137.722656 117.792969 C 138.75 116.5625 139.859375 115.253906 141.042969 114.03125 C 141.714844 113.332031 142.421875 112.683594 143.042969 112.113281 L 143.445312 111.75 C 144.5625 110.703125 145.765625 109.601562 147.082031 108.585938 C 147.828125 107.976562 148.671875 107.367188 149.414062 106.832031 L 149.730469 106.605469 C 150.964844 105.714844 152.269531 104.84375 153.609375 104.015625 C 154.570312 103.425781 155.542969 102.859375 156.511719 102.324219 C 157.78125 101.660156 159.257812 100.894531 160.753906 100.222656 C 161.65625 99.8125 162.574219 99.398438 163.511719 99.015625 Z M 165.277344 143.71875 L 165.457031 141.726562 L 167.445312 141.972656 C 174.082031 142.796875 180.832031 143.234375 187.511719 143.273438 C 194.171875 143.234375 200.914062 142.796875 207.539062 141.972656 L 209.523438 141.726562 L 209.707031 143.714844 C 210.179688 148.769531 210.414062 153.976562 210.414062 159.199219 C 210.414062 164.332031 210.183594 169.398438 209.707031 174.6875 L 209.53125 176.667969 L 207.554688 176.4375 C 200.898438 175.664062 194.195312 175.277344 187.492188 175.277344 C 180.789062 175.277344 174.085938 175.664062 167.429688 176.4375 L 165.453125 176.667969 L 165.273438 174.6875 C 164.800781 169.394531 164.566406 164.328125 164.566406 159.199219 C 164.570312 154.058594 164.800781 148.996094 165.277344 143.71875 Z M 206.027344 131.96875 C 193.777344 133.367188 181.207031 133.367188 168.960938 131.96875 L 166.878906 131.734375 L 167.277344 129.675781 C 171.382812 108.519531 179.503906 94.304688 187.496094 94.304688 C 195.484375 94.304688 203.605469 108.519531 207.707031 129.675781 L 208.109375 131.734375 Z M 168.960938 186.429688 C 181.257812 185.027344 193.730469 185.027344 206.023438 186.429688 L 208.105469 186.667969 L 207.703125 188.722656 C 203.605469 209.878906 195.480469 224.09375 187.492188 224.09375 C 179.503906 224.09375 171.378906 209.878906 167.277344 188.722656 L 166.878906 186.667969 Z M 206.835938 221.273438 L 209.015625 216.773438 C 213.097656 208.335938 215.988281 199.378906 217.617188 190.148438 L 217.960938 188.191406 L 219.90625 188.585938 C 226.421875 189.898438 232.800781 191.96875 238.859375 194.738281 L 241.027344 195.726562 L 239.617188 197.648438 C 232.445312 207.394531 222.714844 214.921875 211.476562 219.417969 Z M 238.84375 123.664062 C 232.789062 126.4375 226.410156 128.511719 219.890625 129.824219 L 217.945312 130.21875 L 217.601562 128.257812 C 215.980469 119.042969 213.09375 110.09375 209.019531 101.660156 L 206.855469 97.175781 L 211.484375 99.019531 C 212.410156 99.386719 213.3125 99.796875 214.21875 100.210938 C 215.808594 100.929688 217.210938 101.625 218.507812 102.339844 C 219.460938 102.863281 220.394531 103.414062 221.324219 103.980469 C 222.695312 104.820312 224.042969 105.722656 225.339844 106.667969 C 226.261719 107.332031 227.09375 107.933594 227.917969 108.601562 C 229.039062 109.492188 230.222656 110.527344 231.640625 111.855469 L 232.304688 112.476562 C 232.847656 112.980469 233.394531 113.488281 233.925781 114.054688 C 235.113281 115.269531 236.234375 116.601562 237.375 117.976562 L 237.941406 118.644531 C 238.351562 119.125 238.761719 119.609375 239.148438 120.085938 C 239.289062 120.269531 239.394531 120.433594 239.503906 120.601562 L 241.015625 122.671875 Z M 155.371094 141.917969 C 154.152344 153.386719 154.152344 165.015625 155.371094 176.480469 L 155.5625 178.253906 L 153.8125 178.589844 C 145.828125 180.121094 138.0625 182.65625 130.730469 186.132812 L 128.941406 186.980469 L 128.132812 185.171875 C 124.460938 176.945312 122.597656 168.207031 122.597656 159.199219 C 122.597656 150.191406 124.460938 141.453125 128.132812 133.226562 L 128.9375 131.417969 L 130.730469 132.265625 C 138.074219 135.738281 145.839844 138.277344 153.8125 139.808594 L 155.5625 140.144531 Z M 155.371094 141.917969 " fill-opacity="1" fill-rule="nonzero"/></g><g fill="#1c6758" fill-opacity="1"><g transform="translate(47.797688, 261.050799)"><g><path d="M 15.203125 -12.703125 C 18.003906 -15.753906 21.070312 -17.796875 24.40625 -18.828125 C 27.738281 -19.859375 31.15625 -19.832031 34.65625 -18.75 C 38.15625 -17.664062 41.546875 -15.507812 44.828125 -12.28125 C 48.367188 -8.78125 50.691406 -5.335938 51.796875 -1.953125 C 52.910156 1.421875 52.84375 4.46875 51.59375 7.1875 C 51.257812 7.976562 50.738281 8.734375 50.03125 9.453125 C 49.320312 10.179688 48.515625 10.742188 47.609375 11.140625 C 46.703125 11.546875 45.710938 11.679688 44.640625 11.546875 C 43.578125 11.410156 42.5 10.890625 41.40625 9.984375 C 40.21875 8.953125 39.34375 7.816406 38.78125 6.578125 C 38.21875 5.335938 38.082031 4.082031 38.375 2.8125 C 38.664062 1.539062 39.445312 0.332031 40.71875 -0.8125 C 42.425781 -2.28125 43.445312 -3.660156 43.78125 -4.953125 C 44.125 -6.253906 44.015625 -7.4375 43.453125 -8.5 C 42.898438 -9.570312 42.078125 -10.507812 40.984375 -11.3125 C 39.460938 -12.507812 37.800781 -12.867188 36 -12.390625 C 34.207031 -11.910156 32.328125 -10.804688 30.359375 -9.078125 C 28.398438 -7.347656 26.375 -5.140625 24.28125 -2.453125 C 23.113281 -0.953125 22.109375 0.617188 21.265625 2.265625 C 20.429688 3.921875 19.890625 5.578125 19.640625 7.234375 C 19.390625 8.890625 19.515625 10.53125 20.015625 12.15625 C 20.523438 13.789062 21.546875 15.359375 23.078125 16.859375 C 25.046875 18.796875 27.367188 19.816406 30.046875 19.921875 C 32.722656 20.035156 35.335938 19.132812 37.890625 17.21875 C 38.492188 16.75 39.164062 16.367188 39.90625 16.078125 C 40.65625 15.785156 41.328125 15.988281 41.921875 16.6875 C 42.484375 17.300781 42.585938 17.941406 42.234375 18.609375 C 41.890625 19.273438 41.359375 19.894531 40.640625 20.46875 C 36.835938 23.488281 32.859375 24.6875 28.703125 24.0625 C 24.546875 23.445312 20.425781 21.125 16.34375 17.09375 C 13.0625 13.863281 10.90625 10.503906 9.875 7.015625 C 8.851562 3.523438 8.816406 0.0976562 9.765625 -3.265625 C 10.710938 -6.640625 12.523438 -9.785156 15.203125 -12.703125 Z M 15.203125 -12.703125 "/></g></g></g><g fill="#1c6758" fill-opacity="1"><g transform="translate(83.428708, 295.524186)"><g><path d="M 18.71875 -31.953125 C 18.457031 -32.460938 18.550781 -32.945312 19 -33.40625 C 19.445312 -33.863281 19.910156 -33.96875 20.390625 -33.71875 L 35.875 -25.5625 C 40.320312 -23.257812 43.96875 -20.851562 46.8125 -18.34375 C 49.664062 -15.84375 51.566406 -13.351562 52.515625 -10.875 C 53.460938 -8.394531 53.320312 -6.003906 52.09375 -3.703125 C 50.957031 -1.554688 49.207031 -0.175781 46.84375 0.4375 C 44.476562 1.0625 41.65625 1.019531 38.375 0.3125 C 39.21875 0.957031 39.878906 1.992188 40.359375 3.421875 C 40.835938 4.847656 40.953125 6.644531 40.703125 8.8125 L 40.390625 16.046875 C 40.359375 17.128906 40.695312 18.070312 41.40625 18.875 C 41.59375 19.09375 41.765625 19.320312 41.921875 19.5625 C 42.179688 20.070312 42.082031 20.554688 41.625 21.015625 C 41.175781 21.484375 40.703125 21.582031 40.203125 21.3125 L 23.6875 12.5625 C 23.175781 12.28125 22.984375 11.820312 23.109375 11.1875 C 23.242188 10.5625 23.585938 10.210938 24.140625 10.140625 C 24.328125 10.128906 24.519531 10.125 24.71875 10.125 C 24.925781 10.125 25.117188 10.113281 25.296875 10.09375 C 26.390625 10.125 26.976562 9.59375 27.0625 8.5 L 27.078125 8.125 L 27.125 8.15625 L 27.515625 3.734375 C 27.671875 1.628906 27.609375 -0.015625 27.328125 -1.203125 C 27.054688 -2.390625 26.640625 -3.304688 26.078125 -3.953125 C 25.523438 -4.609375 24.847656 -5.144531 24.046875 -5.5625 L 23.03125 -6.109375 L 17.953125 3.46875 C 17.472656 4.363281 17.515625 5.296875 18.078125 6.265625 C 18.203125 6.410156 18.300781 6.566406 18.375 6.734375 C 18.457031 6.898438 18.535156 7.054688 18.609375 7.203125 C 18.890625 7.722656 18.800781 8.210938 18.34375 8.671875 C 17.894531 9.128906 17.410156 9.222656 16.890625 8.953125 L 2.015625 1.0625 C 1.503906 0.800781 1.3125 0.351562 1.4375 -0.28125 C 1.570312 -0.914062 1.921875 -1.269531 2.484375 -1.34375 C 2.671875 -1.351562 2.875 -1.359375 3.09375 -1.359375 C 3.320312 -1.367188 3.546875 -1.382812 3.765625 -1.40625 C 4.203125 -1.375 4.632812 -1.46875 5.0625 -1.6875 C 5.488281 -1.914062 5.820312 -2.21875 6.0625 -2.59375 L 19.578125 -28.109375 C 20.066406 -29.035156 20.007812 -29.96875 19.40625 -30.90625 C 19.269531 -31.101562 19.144531 -31.289062 19.03125 -31.46875 C 18.925781 -31.65625 18.820312 -31.816406 18.71875 -31.953125 Z M 31.578125 -22.234375 L 31.125 -21.375 L 25.328125 -10.4375 C 25.109375 -10.019531 25.0625 -9.601562 25.1875 -9.1875 C 25.320312 -8.769531 25.59375 -8.453125 26 -8.234375 C 29.5625 -6.347656 32.492188 -5.519531 34.796875 -5.75 C 37.109375 -5.976562 38.9375 -7.363281 40.28125 -9.90625 C 41.644531 -12.476562 41.8125 -14.804688 40.78125 -16.890625 C 39.75 -18.972656 37.425781 -21 33.8125 -22.96875 C 33.40625 -23.1875 32.988281 -23.234375 32.5625 -23.109375 C 32.144531 -22.984375 31.816406 -22.691406 31.578125 -22.234375 Z M 31.578125 -22.234375 "/></g></g></g><g fill="#1c6758" fill-opacity="1"><g transform="translate(131.277766, 320.491364)"><g><path d="M 2.203125 0.359375 C 1.671875 0.273438 1.363281 -0.0820312 1.28125 -0.71875 C 1.195312 -1.363281 1.414062 -1.8125 1.9375 -2.0625 C 2.21875 -2.195312 2.613281 -2.347656 3.125 -2.515625 C 4.164062 -2.867188 4.773438 -3.5625 4.953125 -4.59375 L 10.734375 -33.296875 C 10.765625 -34.171875 10.40625 -34.875 9.65625 -35.40625 C 9.21875 -35.738281 8.890625 -36.007812 8.671875 -36.21875 C 8.265625 -36.632812 8.195312 -37.128906 8.46875 -37.703125 C 8.75 -38.273438 9.160156 -38.515625 9.703125 -38.421875 L 23.734375 -36.125 C 24.773438 -35.945312 25.425781 -35.320312 25.6875 -34.25 L 30.71875 -11.84375 L 41.921875 -31.578125 C 42.523438 -32.503906 43.34375 -32.882812 44.375 -32.71875 L 57.390625 -30.578125 C 57.953125 -30.484375 58.285156 -30.117188 58.390625 -29.484375 C 58.492188 -28.847656 58.273438 -28.398438 57.734375 -28.140625 C 57.597656 -28.066406 57.4375 -27.988281 57.25 -27.90625 C 57.0625 -27.820312 56.875 -27.757812 56.6875 -27.71875 C 55.78125 -27.3125 55.210938 -26.648438 54.984375 -25.734375 L 51.671875 3.09375 C 51.503906 4.050781 51.820312 4.910156 52.625 5.671875 C 52.789062 5.773438 52.941406 5.894531 53.078125 6.03125 C 53.222656 6.164062 53.359375 6.300781 53.484375 6.4375 C 53.898438 6.832031 53.957031 7.316406 53.65625 7.890625 C 53.363281 8.472656 52.929688 8.71875 52.359375 8.625 L 35.75 5.890625 C 35.21875 5.796875 34.910156 5.429688 34.828125 4.796875 C 34.742188 4.160156 34.945312 3.710938 35.4375 3.453125 C 35.632812 3.378906 35.828125 3.300781 36.015625 3.21875 C 36.210938 3.144531 36.410156 3.070312 36.609375 3 C 37.117188 2.851562 37.53125 2.585938 37.84375 2.203125 C 38.164062 1.816406 38.390625 1.394531 38.515625 0.9375 L 41.296875 -23.71875 L 26.59375 2.828125 C 26 3.765625 25.195312 4.148438 24.1875 3.984375 L 21.65625 3.5625 C 20.625 3.394531 19.972656 2.769531 19.703125 1.6875 L 13.625 -28.453125 L 8.71875 -3.96875 C 8.601562 -3.507812 8.644531 -3.050781 8.84375 -2.59375 C 9.050781 -2.132812 9.347656 -1.734375 9.734375 -1.390625 C 9.859375 -1.285156 9.988281 -1.164062 10.125 -1.03125 C 10.269531 -0.894531 10.40625 -0.765625 10.53125 -0.640625 C 10.945312 -0.242188 11.015625 0.242188 10.734375 0.828125 C 10.460938 1.410156 10.039062 1.65625 9.46875 1.5625 Z M 2.203125 0.359375 "/></g></g></g><g fill="#1c6758" fill-opacity="1"><g transform="translate(191.198879, 328.58812)"><g><path d="M 0.6875 -9.796875 C 0.414062 -11.140625 0.648438 -12.328125 1.390625 -13.359375 C 2.140625 -14.390625 3.238281 -14.972656 4.6875 -15.109375 C 5.90625 -15.253906 6.960938 -15.097656 7.859375 -14.640625 C 8.753906 -14.179688 9.566406 -13.5625 10.296875 -12.78125 C 11.035156 -12 11.765625 -11.15625 12.484375 -10.25 C 13.203125 -9.34375 14.003906 -8.492188 14.890625 -7.703125 C 15.785156 -6.921875 16.828125 -6.285156 18.015625 -5.796875 C 19.203125 -5.316406 20.65625 -5.113281 22.375 -5.1875 C 24.269531 -5.238281 25.804688 -5.660156 26.984375 -6.453125 C 28.171875 -7.253906 28.78125 -8.3125 28.8125 -9.625 C 28.84375 -10.769531 28.351562 -11.726562 27.34375 -12.5 C 26.332031 -13.269531 24.96875 -13.945312 23.25 -14.53125 C 21.53125 -15.113281 19.640625 -15.660156 17.578125 -16.171875 C 15.523438 -16.691406 13.441406 -17.273438 11.328125 -17.921875 C 9.210938 -18.578125 7.234375 -19.359375 5.390625 -20.265625 C 3.546875 -21.179688 2.003906 -22.300781 0.765625 -23.625 C -0.472656 -24.945312 -1.234375 -26.578125 -1.515625 -28.515625 C -1.878906 -31.035156 -1.4375 -33.265625 -0.1875 -35.203125 C 1.050781 -37.148438 2.894531 -38.769531 5.34375 -40.0625 C 7.800781 -41.351562 10.691406 -42.21875 14.015625 -42.65625 C 17.523438 -43.164062 20.644531 -43.191406 23.375 -42.734375 C 26.101562 -42.273438 28.34375 -41.507812 30.09375 -40.4375 C 31.851562 -39.363281 32.988281 -38.1875 33.5 -36.90625 C 34.1875 -35.289062 34.15625 -33.960938 33.40625 -32.921875 C 32.65625 -31.890625 31.613281 -31.28125 30.28125 -31.09375 C 29.53125 -30.976562 28.710938 -31.03125 27.828125 -31.25 C 26.648438 -31.550781 25.632812 -32.035156 24.78125 -32.703125 C 23.925781 -33.367188 23.144531 -34.117188 22.4375 -34.953125 C 21.738281 -35.785156 21.019531 -36.578125 20.28125 -37.328125 C 19.550781 -38.085938 18.707031 -38.707031 17.75 -39.1875 C 16.800781 -39.675781 15.648438 -39.914062 14.296875 -39.90625 C 12.828125 -39.90625 11.554688 -39.671875 10.484375 -39.203125 C 9.410156 -38.734375 8.609375 -38.128906 8.078125 -37.390625 C 7.546875 -36.660156 7.378906 -35.867188 7.578125 -35.015625 C 7.804688 -33.984375 8.515625 -33.128906 9.703125 -32.453125 C 10.898438 -31.773438 12.40625 -31.175781 14.21875 -30.65625 C 16.039062 -30.144531 18.015625 -29.640625 20.140625 -29.140625 C 22.273438 -28.640625 24.40625 -28.070312 26.53125 -27.4375 C 28.664062 -26.8125 30.628906 -26.050781 32.421875 -25.15625 C 34.222656 -24.269531 35.707031 -23.160156 36.875 -21.828125 C 38.050781 -20.492188 38.722656 -18.867188 38.890625 -16.953125 C 39.140625 -14.441406 38.582031 -12.191406 37.21875 -10.203125 C 35.851562 -8.210938 33.863281 -6.546875 31.25 -5.203125 C 28.644531 -3.867188 25.5625 -2.945312 22 -2.4375 C 18.1875 -1.875 14.742188 -1.8125 11.671875 -2.25 C 8.597656 -2.6875 6.097656 -3.550781 4.171875 -4.84375 C 2.242188 -6.144531 1.082031 -7.796875 0.6875 -9.796875 Z M 0.6875 -9.796875 "/></g></g></g><g fill="#1c6758" fill-opacity="1"><g transform="translate(236.562075, 320.515493)"><g><path d="M 1.5 -6.421875 C 0.9375 -8.035156 0.992188 -9.476562 1.671875 -10.75 C 2.359375 -12.03125 3.5625 -12.972656 5.28125 -13.578125 C 7.03125 -14.191406 8.5625 -14.210938 9.875 -13.640625 C 11.195312 -13.066406 12.140625 -11.972656 12.703125 -10.359375 C 13.296875 -8.679688 13.253906 -7.210938 12.578125 -5.953125 C 11.910156 -4.691406 10.703125 -3.753906 8.953125 -3.140625 C 7.265625 -2.554688 5.738281 -2.550781 4.375 -3.125 C 3.019531 -3.707031 2.0625 -4.804688 1.5 -6.421875 Z M 1.5 -6.421875 "/></g></g></g><g fill="#1c6758" fill-opacity="1"><g transform="translate(257.62868, 313.848779)"><g><path d="M -17.140625 -32.875 C -17.703125 -32.9375 -18.054688 -33.273438 -18.203125 -33.890625 C -18.359375 -34.515625 -18.203125 -34.960938 -17.734375 -35.234375 L 9.359375 -50.859375 C 9.796875 -51.109375 10.253906 -51.203125 10.734375 -51.140625 C 11.210938 -51.078125 11.625 -50.851562 11.96875 -50.46875 C 12.476562 -49.9375 13.09375 -49.285156 13.8125 -48.515625 C 14.53125 -47.753906 15.195312 -46.988281 15.8125 -46.21875 C 16.28125 -45.613281 16.457031 -45.0625 16.34375 -44.5625 C 16.238281 -44.0625 15.960938 -43.679688 15.515625 -43.421875 C 14.828125 -43.023438 14 -43.046875 13.03125 -43.484375 C 12.25 -43.921875 11.445312 -44.335938 10.625 -44.734375 C 9.800781 -45.140625 8.84375 -45.320312 7.75 -45.28125 C 6.65625 -45.25 5.296875 -44.757812 3.671875 -43.8125 L -1.484375 -40.84375 C -1.890625 -40.613281 -2.15625 -40.289062 -2.28125 -39.875 C -2.40625 -39.46875 -2.335938 -39.046875 -2.078125 -38.609375 L -1.59375 -37.765625 L 4.125 -27.84375 L 7.53125 -29.796875 C 8.757812 -30.503906 9.625 -31.1875 10.125 -31.84375 C 10.632812 -32.5 10.921875 -33.113281 10.984375 -33.6875 C 11.046875 -34.269531 11.023438 -34.804688 10.921875 -35.296875 C 10.828125 -35.785156 10.800781 -36.234375 10.84375 -36.640625 C 10.894531 -37.046875 11.128906 -37.390625 11.546875 -37.671875 C 12.023438 -37.992188 12.625 -37.859375 13.34375 -37.265625 C 14.070312 -36.671875 14.785156 -35.84375 15.484375 -34.78125 C 16.179688 -33.71875 16.785156 -32.613281 17.296875 -31.46875 C 17.816406 -30.320312 18.125 -29.289062 18.21875 -28.375 C 18.320312 -27.46875 18.113281 -26.890625 17.59375 -26.640625 C 17.132812 -26.398438 16.742188 -26.378906 16.421875 -26.578125 C 16.097656 -26.773438 15.765625 -27.03125 15.421875 -27.34375 C 15.078125 -27.664062 14.644531 -27.929688 14.125 -28.140625 C 13.601562 -28.347656 12.945312 -28.390625 12.15625 -28.265625 C 11.363281 -28.148438 10.351562 -27.738281 9.125 -27.03125 L 5.71875 -25.078125 L 12.6875 -12.984375 C 12.925781 -12.566406 13.257812 -12.300781 13.6875 -12.1875 C 14.113281 -12.082031 14.53125 -12.144531 14.9375 -12.375 L 21.03125 -15.890625 C 22.664062 -16.835938 23.769531 -17.769531 24.34375 -18.6875 C 24.925781 -19.613281 25.25 -20.53125 25.3125 -21.4375 C 25.375 -22.351562 25.425781 -23.242188 25.46875 -24.109375 C 25.519531 -25.179688 25.921875 -25.9375 26.671875 -26.375 C 27.109375 -26.625 27.570312 -26.664062 28.0625 -26.5 C 28.5625 -26.332031 28.929688 -25.894531 29.171875 -25.1875 C 29.546875 -24.28125 29.890625 -23.316406 30.203125 -22.296875 C 30.515625 -21.273438 30.773438 -20.398438 30.984375 -19.671875 C 31.117188 -19.222656 31.101562 -18.78125 30.9375 -18.34375 C 30.769531 -17.90625 30.460938 -17.5625 30.015625 -17.3125 L 1.9375 -1.109375 C 1.46875 -0.835938 1 -0.925781 0.53125 -1.375 C 0.0703125 -1.820312 -0.0390625 -2.300781 0.1875 -2.8125 C 0.332031 -3.101562 0.539062 -3.472656 0.8125 -3.921875 C 1.414062 -4.859375 1.453125 -5.78125 0.921875 -6.6875 L -13.40625 -31.5625 C -13.957031 -32.507812 -14.773438 -32.941406 -15.859375 -32.859375 C -16.398438 -32.847656 -16.828125 -32.851562 -17.140625 -32.875 Z M -17.140625 -32.875 "/></g></g></g><g fill="#1c6758" fill-opacity="1"><g transform="translate(296.058799, 291.238647)"><g><path d="M -5.296875 -8.265625 C -6.316406 -9.191406 -6.832031 -10.289062 -6.84375 -11.5625 C -6.863281 -12.832031 -6.332031 -13.957031 -5.25 -14.9375 C -4.34375 -15.769531 -3.394531 -16.269531 -2.40625 -16.4375 C -1.425781 -16.601562 -0.410156 -16.59375 0.640625 -16.40625 C 1.703125 -16.226562 2.789062 -15.988281 3.90625 -15.6875 C 5.019531 -15.382812 6.164062 -15.179688 7.34375 -15.078125 C 8.53125 -14.984375 9.75 -15.09375 11 -15.40625 C 12.25 -15.726562 13.539062 -16.425781 14.875 -17.5 C 16.363281 -18.675781 17.347656 -19.9375 17.828125 -21.28125 C 18.304688 -22.632812 18.160156 -23.84375 17.390625 -24.90625 C 16.722656 -25.84375 15.753906 -26.316406 14.484375 -26.328125 C 13.210938 -26.347656 11.710938 -26.078125 9.984375 -25.515625 C 8.265625 -24.960938 6.421875 -24.28125 4.453125 -23.46875 C 2.492188 -22.664062 0.472656 -21.894531 -1.609375 -21.15625 C -3.691406 -20.414062 -5.742188 -19.859375 -7.765625 -19.484375 C -9.785156 -19.117188 -11.6875 -19.097656 -13.46875 -19.421875 C -15.25 -19.753906 -16.832031 -20.613281 -18.21875 -22 C -20.007812 -23.800781 -20.984375 -25.847656 -21.140625 -28.140625 C -21.304688 -30.441406 -20.785156 -32.84375 -19.578125 -35.34375 C -18.378906 -37.851562 -16.582031 -40.269531 -14.1875 -42.59375 C -11.664062 -45.101562 -9.171875 -46.988281 -6.703125 -48.25 C -4.242188 -49.507812 -1.992188 -50.226562 0.046875 -50.40625 C 2.085938 -50.582031 3.703125 -50.316406 4.890625 -49.609375 C 6.390625 -48.710938 7.144531 -47.625 7.15625 -46.34375 C 7.175781 -45.070312 6.710938 -43.960938 5.765625 -43.015625 C 5.222656 -42.472656 4.535156 -42.023438 3.703125 -41.671875 C 2.578125 -41.210938 1.472656 -40.992188 0.390625 -41.015625 C -0.679688 -41.046875 -1.75 -41.1875 -2.8125 -41.4375 C -3.882812 -41.6875 -4.9375 -41.894531 -5.96875 -42.0625 C -7.007812 -42.238281 -8.054688 -42.234375 -9.109375 -42.046875 C -10.160156 -41.867188 -11.226562 -41.375 -12.3125 -40.5625 C -13.5 -39.675781 -14.378906 -38.726562 -14.953125 -37.71875 C -15.535156 -36.707031 -15.820312 -35.75 -15.8125 -34.84375 C -15.8125 -33.9375 -15.472656 -33.195312 -14.796875 -32.625 C -14.003906 -31.9375 -12.925781 -31.675781 -11.5625 -31.84375 C -10.207031 -32.019531 -8.640625 -32.441406 -6.859375 -33.109375 C -5.085938 -33.773438 -3.195312 -34.539062 -1.1875 -35.40625 C 0.8125 -36.28125 2.851562 -37.097656 4.9375 -37.859375 C 7.019531 -38.628906 9.046875 -39.1875 11.015625 -39.53125 C 12.992188 -39.882812 14.847656 -39.875 16.578125 -39.5 C 18.316406 -39.132812 19.832031 -38.234375 21.125 -36.796875 C 22.8125 -34.929688 23.703125 -32.789062 23.796875 -30.375 C 23.890625 -27.957031 23.285156 -25.429688 21.984375 -22.796875 C 20.691406 -20.171875 18.769531 -17.59375 16.21875 -15.0625 C 13.488281 -12.34375 10.757812 -10.238281 8.03125 -8.75 C 5.300781 -7.269531 2.773438 -6.472656 0.453125 -6.359375 C -1.867188 -6.253906 -3.785156 -6.890625 -5.296875 -8.265625 Z M -5.296875 -8.265625 "/></g></g></g></svg>